<svg width="512" height="512" viewBox="0 0 512 512" fill="none" xmlns="http://www.w3.org/2000/svg">
<path d="M248.686 181.379C240.694 171.093 233.39 160.808 229.093 148.734C221.449 128.163 220.089 107.593 221.801 86.6743C222.461 77.7374 224.525 69.1529 227.885 60.9629C231.508 52.119 235.917 43.8344 240.828 35.9904C242.893 32.6626 245.053 29.4296 247.401 26.3884C249.22 24.0511 250.579 23.3481 252.845 25.7801C255.291 28.3712 257.648 31.0998 259.823 33.9233C267.819 44.1146 274.149 55.4437 279.099 67.5367C287.353 87.9115 290.169 109.223 289.069 131.009C288.435 143.439 286.238 155.599 281.904 167.131C277.938 177.782 272.701 187.639 266.098 196.664C264.471 198.798 262.66 200.778 261.028 202.913C258.675 206.015 256.631 206.146 254.086 203.186C252.29 201.089 250.661 198.772 249.153 196.42C248.992 196.193 248.859 195.966 248.699 195.739C248.739 191.023 248.739 186.306 248.686 181.379Z" fill="#599636"/>
<path d="M248.686 181.379C248.739 186.306 248.739 191.023 248.699 195.739C248.699 205.925 248.726 216.112 248.686 226.299C248.673 229.954 248.673 233.635 248.432 237.277C248.258 239.918 249.046 242.155 250.446 244.343C252.337 247.278 254.282 250.187 256.189 253.109C257.874 255.698 257.395 257.82 255.049 259.982C253.881 261.049 252.62 261.989 251.199 262.676C240.399 267.912 229.599 273.175 218.76 278.305C218.386 278.465 217.985 278.558 217.198 278.825C218.6 273.801 219.868 268.984 221.263 264.207C223.075 257.998 223.87 251.655 224.284 245.218C224.87 235.438 224.337 225.685 223.687 215.931C222.62 199.774 220.488 183.776 217.518 167.913C216.027 159.997 214.173 152.16 212.221 144.363C211.028 139.219 209.614 134.116 208.521 128.972C206.696 120.314 204.871 111.644 202.953 103.013C201.685 97.4286 200.231 91.8846 198.683 86.3807C197.882 83.5572 196.868 80.7732 196.002 77.9232C194.162 72.1188 192.27 66.3279 190.403 60.5264C189.644 58.1704 188.831 55.8408 187.984 53.5243C186.743 50.1174 185.196 48.0464 180.987 48.0069C179.851 47.9938 178.76 47.5179 177.681 47.1633C174.805 46.2447 171.943 45.252 169.08 44.3465C165.351 43.1749 163.022 41.1038 161.769 37.5758C160.329 33.539 159.846 29.3241 160.276 25.0696C160.586 21.9993 161.87 19.1627 163.742 16.6928C165.508 14.343 167.706 12.4109 170.108 10.9631C172.842 9.31847 175.744 7.99661 178.787 7.05029C185.733 4.8285 192.894 3.55581 200.204 3.2571C203.186 3.13332 206.155 3.09708 209.123 3.17918C213.838 3.32864 218.467 4.29063 223.048 5.54901C234.082 8.4957 243.181 14.2593 250.54 22.9988C255.901 29.3373 259.49 36.6177 262.301 44.351C264.777 51.186 266.629 58.2362 268.24 65.3338C270.758 76.7001 271.873 88.2847 272.129 99.9479C272.358 110.493 271.714 120.985 269.802 131.357C268.761 137.148 267.359 142.878 265.644 148.481C262.514 158.274 258.569 167.694 253.547 176.663C252.043 179.175 250.379 181.594 248.686 184.026C248.686 183.144 248.686 182.262 248.686 181.379Z" fill="#6CAC48"/>
<path d="M217.198 278.825C217.985 278.558 218.386 278.465 218.76 278.305C229.599 273.175 240.399 267.912 251.199 262.676C252.62 261.989 253.881 261.049 255.049 259.982C257.395 257.82 257.874 255.698 256.189 253.109C254.282 250.187 252.337 247.278 250.446 244.343C249.046 242.155 248.257 239.918 248.432 237.277C248.673 233.635 248.673 229.954 248.686 226.299C248.726 216.112 248.699 205.925 248.699 195.739C248.858 195.966 248.992 196.193 249.153 196.42C250.661 198.772 252.29 201.089 254.086 203.186C256.631 206.146 258.675 206.015 261.028 202.913C262.66 200.778 264.471 198.798 266.098 196.664C276.599 218.941 282.238 242.352 282.584 267.008C282.665 273.135 282.412 279.281 281.678 285.36C280.944 291.432 279.647 297.411 278.096 303.336C276.16 310.725 273.629 317.907 270.292 324.788C261.602 343.128 249.166 358.242 232.47 369.778C220.914 377.689 208.456 383.564 195.154 387.564C191.571 388.651 188.015 389.841 184.445 390.997C182.327 391.689 180.582 391.009 178.961 389.665C177.581 388.53 176.551 387.088 175.857 385.475C174.35 382.019 173.901 378.335 173.421 374.652C171.357 358.442 171.385 342.165 172.131 325.876C172.758 311.897 174.35 298.028 177.073 284.305C180.011 269.453 184.058 254.927 189.429 240.778C192.171 233.582 195.342 226.594 198.75 219.671C201.845 213.348 205.309 207.21 208.773 201.072C211.849 195.559 214.964 190.053 218.174 184.64C219.949 181.694 221.9 178.838 223.835 176.036C226.037 172.8 226.957 172.485 229.785 175.031C231.254 176.342 232.591 177.821 233.8 179.392C235.96 182.116 238.079 184.894 240.082 187.731C243.51 192.606 246.912 197.507 250.247 202.408C246.925 227.753 243.591 253.099 240.257 278.444C232.538 278.564 224.9 278.891 217.198 278.825Z" fill="#C2BFBF"/>
</svg> 